<svg width="20" height="20" viewBox="0 0 20 20" fill="none" xmlns="http://www.w3.org/2000/svg">
<path d="M19.2412 1.59354L18.4053 0.758833C17.9029 0.253539 17.2353 -0.00175562 16.5753 9.08628e-06C15.9153 -0.00116738 15.2476 0.254127 14.7441 0.758833L2.21647 13.2865C1.26706 14.4318 0.416471 18.5612 0.330588 18.6776L0 20L1.32118 19.6694C1.43765 19.5824 5.56823 18.7329 6.71235 17.7835L19.2412 5.25471C19.7453 4.75236 20 4.08471 19.9988 3.42471C20 2.76471 19.7447 2.09707 19.2412 1.59354ZM5.55647 16.6282C5.57706 16.7335 3.66412 17.2941 2.29 17.6882C2.68588 16.3159 3.26647 14.4229 3.37176 14.4429L12.87 4.94412L15.0553 7.12942L5.55647 16.6282ZM18.0853 4.09942L16.2118 5.97295L14.0259 3.78824L15.8994 1.91471C16.0888 1.72707 16.3276 1.63589 16.5753 1.63471C16.8212 1.63589 17.0606 1.72707 17.2494 1.91471L18.0853 2.74942C18.2729 2.93883 18.3629 3.17765 18.3641 3.42471C18.3629 3.67236 18.2729 3.91118 18.0853 4.09942Z" fill="#6E6E6E"/>
</svg>
